<mxfile host="Electron" modified="2023-08-12T03:36:31.233Z" agent="Mozilla/5.0 (Windows NT 10.0; Win64; x64) AppleWebKit/537.36 (KHTML, like Gecko) draw.io/21.6.8 Chrome/114.0.5735.289 Electron/25.5.0 Safari/537.36" etag="i_-LQFqsEByV-HFn9N5D" version="21.6.8" type="device" pages="7">
  <diagram name="4 Layer in k8s" id="Vz31aKE4h8GVStH_JXsA">
    <mxGraphModel dx="1098" dy="838" grid="1" gridSize="10" guides="1" tooltips="1" connect="1" arrows="1" fold="1" page="1" pageScale="1" pageWidth="827" pageHeight="1169" math="0" shadow="0">
      <root>
        <mxCell id="0" />
        <mxCell id="1" parent="0" />
        <mxCell id="VbBeiWJ0Poip7i3_qD1S-9" style="edgeStyle=orthogonalEdgeStyle;rounded=0;orthogonalLoop=1;jettySize=auto;html=1;exitX=0.25;exitY=1;exitDx=0;exitDy=0;entryX=0.5;entryY=0;entryDx=0;entryDy=0;strokeWidth=2;dashed=1;" parent="1" source="VbBeiWJ0Poip7i3_qD1S-2" target="VbBeiWJ0Poip7i3_qD1S-4" edge="1">
          <mxGeometry relative="1" as="geometry" />
        </mxCell>
        <mxCell id="VbBeiWJ0Poip7i3_qD1S-10" style="edgeStyle=orthogonalEdgeStyle;rounded=0;orthogonalLoop=1;jettySize=auto;html=1;exitX=0.75;exitY=1;exitDx=0;exitDy=0;strokeWidth=2;dashed=1;" parent="1" source="VbBeiWJ0Poip7i3_qD1S-2" target="VbBeiWJ0Poip7i3_qD1S-5" edge="1">
          <mxGeometry relative="1" as="geometry" />
        </mxCell>
        <mxCell id="VbBeiWJ0Poip7i3_qD1S-2" value="Deployment" style="rounded=0;whiteSpace=wrap;html=1;fontFamily=AppleSDGothicNeoEB00;fontSize=16;" parent="1" vertex="1">
          <mxGeometry x="262" y="180" width="420" height="70" as="geometry" />
        </mxCell>
        <mxCell id="VbBeiWJ0Poip7i3_qD1S-16" style="edgeStyle=orthogonalEdgeStyle;rounded=0;orthogonalLoop=1;jettySize=auto;html=1;exitX=0.5;exitY=1;exitDx=0;exitDy=0;entryX=0.5;entryY=0;entryDx=0;entryDy=0;fontFamily=AppleSDGothicNeoEB00;fontSize=16;fontColor=default;endArrow=none;endFill=0;strokeWidth=2;" parent="1" source="VbBeiWJ0Poip7i3_qD1S-4" target="VbBeiWJ0Poip7i3_qD1S-7" edge="1">
          <mxGeometry relative="1" as="geometry" />
        </mxCell>
        <mxCell id="VbBeiWJ0Poip7i3_qD1S-4" value="ReplicaSet&lt;br&gt;version: v1&lt;br&gt;replicas: 2" style="rounded=0;whiteSpace=wrap;html=1;fontFamily=AppleSDGothicNeoEB00;fontSize=16;" parent="1" vertex="1">
          <mxGeometry x="152" y="390" width="216" height="80" as="geometry" />
        </mxCell>
        <mxCell id="VbBeiWJ0Poip7i3_qD1S-26" style="edgeStyle=orthogonalEdgeStyle;rounded=0;orthogonalLoop=1;jettySize=auto;html=1;fontFamily=AppleSDGothicNeoEB00;fontSize=16;fontColor=default;strokeWidth=2;endArrow=none;endFill=0;" parent="1" source="VbBeiWJ0Poip7i3_qD1S-5" target="VbBeiWJ0Poip7i3_qD1S-19" edge="1">
          <mxGeometry relative="1" as="geometry" />
        </mxCell>
        <mxCell id="VbBeiWJ0Poip7i3_qD1S-27" style="edgeStyle=orthogonalEdgeStyle;rounded=0;orthogonalLoop=1;jettySize=auto;html=1;exitX=0.5;exitY=1;exitDx=0;exitDy=0;fontFamily=AppleSDGothicNeoEB00;fontSize=16;fontColor=default;strokeWidth=2;endArrow=none;endFill=0;" parent="1" source="VbBeiWJ0Poip7i3_qD1S-5" target="VbBeiWJ0Poip7i3_qD1S-22" edge="1">
          <mxGeometry relative="1" as="geometry" />
        </mxCell>
        <mxCell id="VbBeiWJ0Poip7i3_qD1S-5" value="ReplicaSet&lt;br&gt;version: v2&lt;br&gt;replicas: 2" style="rounded=0;whiteSpace=wrap;html=1;fontFamily=AppleSDGothicNeoEB00;fontSize=16;" parent="1" vertex="1">
          <mxGeometry x="582" y="390" width="216" height="80" as="geometry" />
        </mxCell>
        <mxCell id="VbBeiWJ0Poip7i3_qD1S-7" value="" style="rounded=1;whiteSpace=wrap;html=1;fontFamily=AppleSDGothicNeoEB00;" parent="1" vertex="1">
          <mxGeometry x="70" y="565" width="170" height="160" as="geometry" />
        </mxCell>
        <mxCell id="VbBeiWJ0Poip7i3_qD1S-8" value="Pod" style="text;html=1;align=center;verticalAlign=middle;resizable=0;points=[];autosize=1;strokeColor=none;fillColor=none;fontSize=16;fontFamily=AppleSDGothicNeoEB00;" parent="1" vertex="1">
          <mxGeometry x="80" y="575" width="50" height="30" as="geometry" />
        </mxCell>
        <mxCell id="VbBeiWJ0Poip7i3_qD1S-11" value="&lt;font face=&quot;AppleSDGothicNeoR00&quot; style=&quot;font-size: 14px;&quot;&gt;Container&lt;/font&gt;" style="ellipse;whiteSpace=wrap;html=1;fontFamily=AppleSDGothicNeoEB00;fontSize=16;fontColor=default;fillColor=none;gradientColor=none;" parent="1" vertex="1">
          <mxGeometry x="120" y="615" width="80" height="75" as="geometry" />
        </mxCell>
        <mxCell id="VbBeiWJ0Poip7i3_qD1S-12" value="" style="rounded=1;whiteSpace=wrap;html=1;fontFamily=AppleSDGothicNeoEB00;" parent="1" vertex="1">
          <mxGeometry x="280" y="565" width="170" height="160" as="geometry" />
        </mxCell>
        <mxCell id="VbBeiWJ0Poip7i3_qD1S-13" value="Pod" style="text;html=1;align=center;verticalAlign=middle;resizable=0;points=[];autosize=1;strokeColor=none;fillColor=none;fontSize=16;fontFamily=AppleSDGothicNeoEB00;" parent="1" vertex="1">
          <mxGeometry x="290" y="575" width="50" height="30" as="geometry" />
        </mxCell>
        <mxCell id="VbBeiWJ0Poip7i3_qD1S-14" value="&lt;font face=&quot;AppleSDGothicNeoR00&quot; style=&quot;font-size: 14px;&quot;&gt;Container&lt;/font&gt;" style="ellipse;whiteSpace=wrap;html=1;fontFamily=AppleSDGothicNeoEB00;fontSize=16;fontColor=default;fillColor=none;gradientColor=none;" parent="1" vertex="1">
          <mxGeometry x="330" y="615" width="80" height="75" as="geometry" />
        </mxCell>
        <mxCell id="VbBeiWJ0Poip7i3_qD1S-17" style="edgeStyle=orthogonalEdgeStyle;rounded=0;orthogonalLoop=1;jettySize=auto;html=1;exitX=0.5;exitY=1;exitDx=0;exitDy=0;entryX=0.5;entryY=0;entryDx=0;entryDy=0;fontFamily=AppleSDGothicNeoEB00;fontSize=16;fontColor=default;endArrow=none;endFill=0;strokeWidth=2;" parent="1" source="VbBeiWJ0Poip7i3_qD1S-4" target="VbBeiWJ0Poip7i3_qD1S-12" edge="1">
          <mxGeometry relative="1" as="geometry">
            <mxPoint x="270" y="480" as="sourcePoint" />
            <mxPoint x="167" y="530" as="targetPoint" />
          </mxGeometry>
        </mxCell>
        <mxCell id="VbBeiWJ0Poip7i3_qD1S-19" value="" style="rounded=1;whiteSpace=wrap;html=1;fontFamily=AppleSDGothicNeoEB00;" parent="1" vertex="1">
          <mxGeometry x="482" y="565" width="170" height="160" as="geometry" />
        </mxCell>
        <mxCell id="VbBeiWJ0Poip7i3_qD1S-20" value="Pod" style="text;html=1;align=center;verticalAlign=middle;resizable=0;points=[];autosize=1;strokeColor=none;fillColor=none;fontSize=16;fontFamily=AppleSDGothicNeoEB00;" parent="1" vertex="1">
          <mxGeometry x="492" y="575" width="50" height="30" as="geometry" />
        </mxCell>
        <mxCell id="VbBeiWJ0Poip7i3_qD1S-21" value="&lt;font face=&quot;AppleSDGothicNeoR00&quot; style=&quot;font-size: 14px;&quot;&gt;Container&lt;/font&gt;" style="ellipse;whiteSpace=wrap;html=1;fontFamily=AppleSDGothicNeoEB00;fontSize=16;fontColor=default;fillColor=none;gradientColor=none;" parent="1" vertex="1">
          <mxGeometry x="532" y="615" width="80" height="75" as="geometry" />
        </mxCell>
        <mxCell id="VbBeiWJ0Poip7i3_qD1S-22" value="" style="rounded=1;whiteSpace=wrap;html=1;fontFamily=AppleSDGothicNeoEB00;" parent="1" vertex="1">
          <mxGeometry x="712" y="565" width="170" height="160" as="geometry" />
        </mxCell>
        <mxCell id="VbBeiWJ0Poip7i3_qD1S-23" value="Pod" style="text;html=1;align=center;verticalAlign=middle;resizable=0;points=[];autosize=1;strokeColor=none;fillColor=none;fontSize=16;fontFamily=AppleSDGothicNeoEB00;" parent="1" vertex="1">
          <mxGeometry x="722" y="575" width="50" height="30" as="geometry" />
        </mxCell>
        <mxCell id="VbBeiWJ0Poip7i3_qD1S-24" value="&lt;font face=&quot;AppleSDGothicNeoR00&quot; style=&quot;font-size: 14px;&quot;&gt;Container&lt;/font&gt;" style="ellipse;whiteSpace=wrap;html=1;fontFamily=AppleSDGothicNeoEB00;fontSize=16;fontColor=default;fillColor=none;gradientColor=none;" parent="1" vertex="1">
          <mxGeometry x="762" y="615" width="80" height="75" as="geometry" />
        </mxCell>
        <mxCell id="VbBeiWJ0Poip7i3_qD1S-28" value="&lt;h1&gt;Deployment Controller&lt;/h1&gt;&lt;p&gt;Depolyment를 특정 상태로 유지하는 컨트롤러&lt;/p&gt;" style="text;html=1;strokeColor=none;fillColor=none;spacing=5;spacingTop=-20;whiteSpace=wrap;overflow=hidden;rounded=0;fontSize=16;fontFamily=AppleSDGothicNeoEB00;fontColor=default;" parent="1" vertex="1">
          <mxGeometry x="20" y="40" width="390" height="90" as="geometry" />
        </mxCell>
        <mxCell id="VbBeiWJ0Poip7i3_qD1S-29" value="" style="shape=image;verticalLabelPosition=bottom;labelBackgroundColor=default;verticalAlign=top;aspect=fixed;imageAspect=0;image=https://theithollow.com/wp-content/uploads/2019/01/image-9-1024x375.png;" parent="1" vertex="1">
          <mxGeometry x="32" y="880" width="1024" height="375" as="geometry" />
        </mxCell>
        <mxCell id="VbBeiWJ0Poip7i3_qD1S-30" value="&lt;h1&gt;&lt;font style=&quot;font-size: 28px;&quot;&gt;Deployment&amp;nbsp;&lt;/font&gt;&lt;/h1&gt;&lt;p&gt;ReplicaSet 관리&lt;/p&gt;&lt;p&gt;- Replicaset Pod 수 조정&lt;/p&gt;&lt;p&gt;- Replicaset 생성&lt;/p&gt;" style="text;html=1;strokeColor=none;fillColor=none;spacing=5;spacingTop=-20;whiteSpace=wrap;overflow=hidden;rounded=0;fontSize=16;fontFamily=AppleSDGothicNeoEB00;fontColor=default;" parent="1" vertex="1">
          <mxGeometry x="922" y="180" width="230" height="170" as="geometry" />
        </mxCell>
        <mxCell id="VbBeiWJ0Poip7i3_qD1S-31" value="&lt;h1&gt;&lt;span style=&quot;font-size: 28px;&quot;&gt;ReplicaSet&lt;/span&gt;&lt;/h1&gt;&lt;p&gt;Pod 관리 단위&lt;/p&gt;&lt;p&gt;대상 Pod 수 조정&lt;/p&gt;" style="text;html=1;strokeColor=none;fillColor=none;spacing=5;spacingTop=-20;whiteSpace=wrap;overflow=hidden;rounded=0;fontSize=16;fontFamily=AppleSDGothicNeoEB00;fontColor=default;" parent="1" vertex="1">
          <mxGeometry x="922" y="380" width="230" height="170" as="geometry" />
        </mxCell>
        <mxCell id="VbBeiWJ0Poip7i3_qD1S-32" value="&lt;h1&gt;&lt;span style=&quot;font-size: 28px;&quot;&gt;Pod&lt;/span&gt;&lt;/h1&gt;&lt;p&gt;Conatiner 관리 단위&lt;/p&gt;&lt;p&gt;Pod 내 Container 는 같은 생명주기를 가짐.&lt;/p&gt;&lt;p&gt;보통 One Pod - One Container 로 설계&lt;br&gt;&lt;br&gt;*고유한 IP 주소를 가짐.&lt;br&gt;&lt;/p&gt;" style="text;html=1;strokeColor=none;fillColor=none;spacing=5;spacingTop=-20;whiteSpace=wrap;overflow=hidden;rounded=0;fontSize=16;fontFamily=AppleSDGothicNeoEB00;fontColor=default;" parent="1" vertex="1">
          <mxGeometry x="922" y="555" width="358" height="235" as="geometry" />
        </mxCell>
        <mxCell id="7vM46S02SC11LB_bQpBa-1" style="edgeStyle=orthogonalEdgeStyle;shape=connector;rounded=0;orthogonalLoop=1;jettySize=auto;html=1;entryX=0;entryY=0.5;entryDx=0;entryDy=0;labelBackgroundColor=default;strokeColor=default;strokeWidth=2;fontFamily=AppleSDGothicNeoEB00;fontSize=16;fontColor=default;endArrow=classic;endFill=1;dashed=1;" parent="1" source="VbBeiWJ0Poip7i3_qD1S-35" target="VbBeiWJ0Poip7i3_qD1S-2" edge="1">
          <mxGeometry relative="1" as="geometry" />
        </mxCell>
        <mxCell id="VbBeiWJ0Poip7i3_qD1S-35" value="Deployment&lt;br&gt;Controller" style="rounded=1;whiteSpace=wrap;html=1;fontFamily=AppleSDGothicNeoEB00;fontSize=16;fontColor=default;fillColor=none;gradientColor=none;" parent="1" vertex="1">
          <mxGeometry x="22" y="140" width="150" height="150" as="geometry" />
        </mxCell>
      </root>
    </mxGraphModel>
  </diagram>
  <diagram id="tBJ2N2NoTUr6QnYW2eOJ" name="Controller">
    <mxGraphModel dx="1098" dy="838" grid="1" gridSize="10" guides="1" tooltips="1" connect="1" arrows="1" fold="1" page="1" pageScale="1" pageWidth="827" pageHeight="1169" math="0" shadow="0">
      <root>
        <mxCell id="0" />
        <mxCell id="1" parent="0" />
        <mxCell id="0LFYxlYB4EFxcAwlx17g-3" value="" style="shape=image;verticalLabelPosition=bottom;labelBackgroundColor=default;verticalAlign=top;aspect=fixed;imageAspect=0;image=https://k21academy.com/wp-content/uploads/2021/05/Kubernetes-Controller_-1.png;" parent="1" vertex="1">
          <mxGeometry x="10" y="130" width="1200" height="570" as="geometry" />
        </mxCell>
      </root>
    </mxGraphModel>
  </diagram>
  <diagram id="YF2STlRfEDUlgVyK35X6" name="Service">
    <mxGraphModel dx="1098" dy="838" grid="1" gridSize="10" guides="1" tooltips="1" connect="1" arrows="1" fold="1" page="1" pageScale="1" pageWidth="827" pageHeight="1169" math="0" shadow="0">
      <root>
        <mxCell id="0" />
        <mxCell id="1" parent="0" />
        <mxCell id="PO3Bkmeu8dVNcUi5RYiN-1" value="&lt;h1&gt;Service&lt;/h1&gt;&lt;p&gt;컨테이너 접속을 위한 Endpoint 제공 방식&lt;/p&gt;&lt;p&gt;Virtual Private IP + NAT 를 사용한다.&lt;/p&gt;&lt;p&gt;&lt;br&gt;&lt;/p&gt;" style="text;html=1;strokeColor=none;fillColor=none;spacing=5;spacingTop=-20;whiteSpace=wrap;overflow=hidden;rounded=0;fontSize=16;fontFamily=AppleSDGothicNeoEB00;fontColor=default;" parent="1" vertex="1">
          <mxGeometry x="20" y="40" width="360" height="150" as="geometry" />
        </mxCell>
        <mxCell id="UqW43M0x8Thu-msSZAPC-1" value="&lt;h1&gt;Flannel&lt;/h1&gt;&lt;p&gt;k8s network 구축 방법&lt;/p&gt;&lt;p&gt;&quot;특정 노드 파드는 모든 노드의 모든 파드와 NAT 없이 통신 가능하다&quot; 는 조건이 있다.&lt;/p&gt;&lt;p&gt;&lt;br&gt;&lt;/p&gt;" style="text;html=1;strokeColor=none;fillColor=none;spacing=5;spacingTop=-20;whiteSpace=wrap;overflow=hidden;rounded=0;fontSize=16;fontFamily=AppleSDGothicNeoEB00;fontColor=default;" parent="1" vertex="1">
          <mxGeometry x="20" y="210" width="360" height="150" as="geometry" />
        </mxCell>
        <mxCell id="FPGhllbCchZzpXyo1dJQ-1" value="" style="rounded=1;whiteSpace=wrap;html=1;fontFamily=AppleSDGothicNeoEB00;" parent="1" vertex="1">
          <mxGeometry x="20" y="390" width="170" height="160" as="geometry" />
        </mxCell>
        <mxCell id="FPGhllbCchZzpXyo1dJQ-2" value="Pod" style="text;html=1;align=center;verticalAlign=middle;resizable=0;points=[];autosize=1;strokeColor=none;fillColor=none;fontSize=16;fontFamily=AppleSDGothicNeoEB00;" parent="1" vertex="1">
          <mxGeometry x="30" y="400" width="50" height="30" as="geometry" />
        </mxCell>
        <mxCell id="FPGhllbCchZzpXyo1dJQ-3" value="&lt;font face=&quot;AppleSDGothicNeoR00&quot; style=&quot;font-size: 14px;&quot;&gt;Container&lt;/font&gt;" style="ellipse;whiteSpace=wrap;html=1;fontFamily=AppleSDGothicNeoEB00;fontSize=16;fontColor=default;fillColor=none;gradientColor=none;" parent="1" vertex="1">
          <mxGeometry x="70" y="440" width="80" height="75" as="geometry" />
        </mxCell>
        <mxCell id="FPGhllbCchZzpXyo1dJQ-4" value="" style="rounded=1;whiteSpace=wrap;html=1;fontFamily=AppleSDGothicNeoEB00;" parent="1" vertex="1">
          <mxGeometry x="320" y="390" width="170" height="160" as="geometry" />
        </mxCell>
        <mxCell id="FPGhllbCchZzpXyo1dJQ-5" value="Pod" style="text;html=1;align=center;verticalAlign=middle;resizable=0;points=[];autosize=1;strokeColor=none;fillColor=none;fontSize=16;fontFamily=AppleSDGothicNeoEB00;" parent="1" vertex="1">
          <mxGeometry x="330" y="400" width="50" height="30" as="geometry" />
        </mxCell>
        <mxCell id="FPGhllbCchZzpXyo1dJQ-6" value="&lt;font face=&quot;AppleSDGothicNeoR00&quot; style=&quot;font-size: 14px;&quot;&gt;Container&lt;/font&gt;" style="ellipse;whiteSpace=wrap;html=1;fontFamily=AppleSDGothicNeoEB00;fontSize=16;fontColor=default;fillColor=none;gradientColor=none;" parent="1" vertex="1">
          <mxGeometry x="370" y="440" width="80" height="75" as="geometry" />
        </mxCell>
        <mxCell id="FPGhllbCchZzpXyo1dJQ-9" style="edgeStyle=orthogonalEdgeStyle;shape=connector;rounded=0;orthogonalLoop=1;jettySize=auto;html=1;exitX=0.5;exitY=0;exitDx=0;exitDy=0;entryX=0.5;entryY=1;entryDx=0;entryDy=0;labelBackgroundColor=default;strokeColor=default;strokeWidth=2;fontFamily=AppleSDGothicNeoEB00;fontSize=16;fontColor=default;endArrow=none;endFill=0;" parent="1" source="FPGhllbCchZzpXyo1dJQ-7" target="FPGhllbCchZzpXyo1dJQ-1" edge="1">
          <mxGeometry relative="1" as="geometry" />
        </mxCell>
        <mxCell id="FPGhllbCchZzpXyo1dJQ-7" value="" style="rounded=0;whiteSpace=wrap;html=1;fontFamily=AppleSDGothicNeoEB00;fontSize=16;fontColor=default;fillColor=none;gradientColor=none;" parent="1" vertex="1">
          <mxGeometry x="20" y="600" width="170" height="140" as="geometry" />
        </mxCell>
        <mxCell id="FPGhllbCchZzpXyo1dJQ-10" style="edgeStyle=orthogonalEdgeStyle;shape=connector;rounded=0;orthogonalLoop=1;jettySize=auto;html=1;exitX=0.5;exitY=0;exitDx=0;exitDy=0;entryX=0.5;entryY=1;entryDx=0;entryDy=0;labelBackgroundColor=default;strokeColor=default;strokeWidth=2;fontFamily=AppleSDGothicNeoEB00;fontSize=16;fontColor=default;endArrow=none;endFill=0;" parent="1" target="FPGhllbCchZzpXyo1dJQ-4" edge="1">
          <mxGeometry relative="1" as="geometry">
            <mxPoint x="405" y="600" as="sourcePoint" />
          </mxGeometry>
        </mxCell>
        <mxCell id="FPGhllbCchZzpXyo1dJQ-17" style="edgeStyle=orthogonalEdgeStyle;shape=connector;rounded=0;orthogonalLoop=1;jettySize=auto;html=1;exitX=1;exitY=0.5;exitDx=0;exitDy=0;entryX=0;entryY=0.5;entryDx=0;entryDy=0;labelBackgroundColor=default;strokeColor=default;strokeWidth=2;fontFamily=AppleSDGothicNeoEB00;fontSize=16;fontColor=default;endArrow=classic;endFill=1;startArrow=classic;startFill=1;dashed=1;" parent="1" source="FPGhllbCchZzpXyo1dJQ-11" target="FPGhllbCchZzpXyo1dJQ-15" edge="1">
          <mxGeometry relative="1" as="geometry" />
        </mxCell>
        <mxCell id="FPGhllbCchZzpXyo1dJQ-11" value="falnnelId" style="rounded=1;whiteSpace=wrap;html=1;fontFamily=AppleSDGothicNeoEB00;fontSize=16;fontColor=default;fillColor=none;gradientColor=none;" parent="1" vertex="1">
          <mxGeometry x="25" y="670" width="160" height="60" as="geometry" />
        </mxCell>
        <mxCell id="FPGhllbCchZzpXyo1dJQ-12" value="Node" style="text;html=1;align=center;verticalAlign=middle;resizable=0;points=[];autosize=1;strokeColor=none;fillColor=none;fontSize=16;fontFamily=AppleSDGothicNeoEB00;fontColor=default;" parent="1" vertex="1">
          <mxGeometry x="30" y="610" width="60" height="30" as="geometry" />
        </mxCell>
        <mxCell id="FPGhllbCchZzpXyo1dJQ-13" value="&lt;font style=&quot;font-size: 18px;&quot;&gt;&amp;lt;FlannelID&amp;gt;&lt;br&gt;&lt;/font&gt;IPv4 네트워크 구축을 위한 Agent&lt;br&gt;- 목적지 IP 특정해 패킷 전송.&lt;br&gt;- 서브넷 할당으로 IP 충돌 방지&lt;br&gt;etcd 내에 설정정보 있음." style="text;html=1;align=left;verticalAlign=middle;resizable=0;points=[];autosize=1;strokeColor=none;fillColor=none;fontSize=16;fontFamily=AppleSDGothicNeoEB00;fontColor=default;" parent="1" vertex="1">
          <mxGeometry x="20" y="760" width="240" height="110" as="geometry" />
        </mxCell>
        <mxCell id="FPGhllbCchZzpXyo1dJQ-14" value="" style="rounded=0;whiteSpace=wrap;html=1;fontFamily=AppleSDGothicNeoEB00;fontSize=16;fontColor=default;fillColor=none;gradientColor=none;" parent="1" vertex="1">
          <mxGeometry x="325" y="600" width="170" height="140" as="geometry" />
        </mxCell>
        <mxCell id="FPGhllbCchZzpXyo1dJQ-15" value="falnnelId" style="rounded=1;whiteSpace=wrap;html=1;fontFamily=AppleSDGothicNeoEB00;fontSize=16;fontColor=default;fillColor=none;gradientColor=none;" parent="1" vertex="1">
          <mxGeometry x="330" y="670" width="160" height="60" as="geometry" />
        </mxCell>
        <mxCell id="FPGhllbCchZzpXyo1dJQ-16" value="Node" style="text;html=1;align=center;verticalAlign=middle;resizable=0;points=[];autosize=1;strokeColor=none;fillColor=none;fontSize=16;fontFamily=AppleSDGothicNeoEB00;fontColor=default;" parent="1" vertex="1">
          <mxGeometry x="335" y="610" width="60" height="30" as="geometry" />
        </mxCell>
        <mxCell id="FPGhllbCchZzpXyo1dJQ-18" value="Communication" style="text;html=1;align=center;verticalAlign=middle;resizable=0;points=[];autosize=1;strokeColor=none;fillColor=none;fontSize=16;fontFamily=AppleSDGothicNeoEB00;fontColor=default;" parent="1" vertex="1">
          <mxGeometry x="195" y="710" width="130" height="30" as="geometry" />
        </mxCell>
      </root>
    </mxGraphModel>
  </diagram>
  <diagram id="r3zILE-_1e_HwUVkv4j1" name="CI/CD in k8s">
    <mxGraphModel dx="1098" dy="838" grid="1" gridSize="10" guides="1" tooltips="1" connect="1" arrows="1" fold="1" page="1" pageScale="1" pageWidth="827" pageHeight="1169" math="0" shadow="0">
      <root>
        <mxCell id="0" />
        <mxCell id="1" parent="0" />
        <mxCell id="3W-xl32_yNYU3Uzr-VyV-1" value="" style="shape=image;verticalLabelPosition=bottom;labelBackgroundColor=default;verticalAlign=top;aspect=fixed;imageAspect=0;image=https://airplane.ghost.io/content/images/44c49fb9-cc5a-4974-8ba4-9bc057e70e9c_img.png;" parent="1" vertex="1">
          <mxGeometry x="50" y="280" width="1200" height="673" as="geometry" />
        </mxCell>
        <mxCell id="3W-xl32_yNYU3Uzr-VyV-2" value="Use&lt;br&gt;kubectl" style="shape=step;perimeter=stepPerimeter;whiteSpace=wrap;html=1;fixedSize=1;fontFamily=AppleSDGothicNeoEB00;fontSize=16;fontColor=default;fillColor=none;gradientColor=none;" parent="1" vertex="1">
          <mxGeometry x="730" y="720" width="120" height="80" as="geometry" />
        </mxCell>
        <mxCell id="3W-xl32_yNYU3Uzr-VyV-3" value="Pull from Registry" style="text;html=1;align=center;verticalAlign=middle;resizable=0;points=[];autosize=1;strokeColor=none;fillColor=none;fontSize=16;fontFamily=AppleSDGothicNeoEB00;fontColor=default;" parent="1" vertex="1">
          <mxGeometry x="620" y="580" width="150" height="30" as="geometry" />
        </mxCell>
      </root>
    </mxGraphModel>
  </diagram>
  <diagram id="eccKYLAiEDW0kdJ2RC2b" name="k8s structure">
    <mxGraphModel dx="1098" dy="838" grid="1" gridSize="10" guides="1" tooltips="1" connect="1" arrows="1" fold="1" page="1" pageScale="1" pageWidth="827" pageHeight="1169" math="0" shadow="0">
      <root>
        <mxCell id="0" />
        <mxCell id="1" parent="0" />
        <mxCell id="Zu3WXsWGmTw4Fh6G8GJ5-12" value="" style="whiteSpace=wrap;html=1;fontFamily=AppleSDGothicNeoEB00;fontSize=16;fontColor=default;fillColor=none;gradientColor=none;dashed=1;strokeWidth=1.5;" parent="1" vertex="1">
          <mxGeometry x="9" y="830" width="800" height="580" as="geometry" />
        </mxCell>
        <mxCell id="Zu3WXsWGmTw4Fh6G8GJ5-6" value="" style="whiteSpace=wrap;html=1;fontFamily=AppleSDGothicNeoEB00;fontSize=16;fontColor=default;fillColor=none;gradientColor=none;dashed=1;strokeWidth=1.5;" parent="1" vertex="1">
          <mxGeometry x="9" y="90" width="800" height="640" as="geometry" />
        </mxCell>
        <mxCell id="Zu3WXsWGmTw4Fh6G8GJ5-3" style="edgeStyle=orthogonalEdgeStyle;shape=connector;rounded=0;orthogonalLoop=1;jettySize=auto;html=1;entryX=0.5;entryY=1;entryDx=0;entryDy=0;entryPerimeter=0;labelBackgroundColor=default;strokeColor=default;strokeWidth=2.5;fontFamily=AppleSDGothicNeoEB00;fontSize=16;fontColor=default;endArrow=classic;endFill=1;" parent="1" source="Zu3WXsWGmTw4Fh6G8GJ5-1" target="Zu3WXsWGmTw4Fh6G8GJ5-2" edge="1">
          <mxGeometry relative="1" as="geometry" />
        </mxCell>
        <mxCell id="RX6ZjSCCP55DBSriP5qo-7" style="edgeStyle=orthogonalEdgeStyle;shape=connector;rounded=0;orthogonalLoop=1;jettySize=auto;html=1;exitX=0.5;exitY=1;exitDx=0;exitDy=0;labelBackgroundColor=default;strokeColor=default;strokeWidth=2.5;fontFamily=AppleSDGothicNeoEB00;fontSize=16;fontColor=default;endArrow=none;endFill=0;" parent="1" source="Zu3WXsWGmTw4Fh6G8GJ5-1" target="Zu3WXsWGmTw4Fh6G8GJ5-14" edge="1">
          <mxGeometry relative="1" as="geometry">
            <Array as="points">
              <mxPoint x="389" y="800" />
              <mxPoint x="169" y="800" />
            </Array>
          </mxGeometry>
        </mxCell>
        <mxCell id="RX6ZjSCCP55DBSriP5qo-8" style="edgeStyle=orthogonalEdgeStyle;shape=connector;rounded=0;orthogonalLoop=1;jettySize=auto;html=1;exitX=0.5;exitY=1;exitDx=0;exitDy=0;labelBackgroundColor=default;strokeColor=default;strokeWidth=2.5;fontFamily=AppleSDGothicNeoEB00;fontSize=16;fontColor=default;endArrow=none;endFill=0;" parent="1" source="Zu3WXsWGmTw4Fh6G8GJ5-1" target="Zu3WXsWGmTw4Fh6G8GJ5-15" edge="1">
          <mxGeometry relative="1" as="geometry">
            <Array as="points">
              <mxPoint x="389" y="800" />
              <mxPoint x="595" y="800" />
            </Array>
          </mxGeometry>
        </mxCell>
        <mxCell id="Zu3WXsWGmTw4Fh6G8GJ5-1" value="kube-api-server" style="rounded=0;whiteSpace=wrap;html=1;fontFamily=AppleSDGothicNeoEB00;fontSize=16;fontColor=default;fillColor=default;gradientColor=none;strokeWidth=2;" parent="1" vertex="1">
          <mxGeometry x="179" y="662.5" width="420" height="85" as="geometry" />
        </mxCell>
        <mxCell id="Zu3WXsWGmTw4Fh6G8GJ5-2" value="etcd" style="strokeWidth=2;html=1;shape=mxgraph.flowchart.database;whiteSpace=wrap;fontFamily=AppleSDGothicNeoEB00;fontSize=16;fontColor=default;fillColor=none;gradientColor=none;" parent="1" vertex="1">
          <mxGeometry x="319" y="190" width="140" height="105" as="geometry" />
        </mxCell>
        <mxCell id="Zu3WXsWGmTw4Fh6G8GJ5-4" value="key-value 저장소&lt;br&gt;k8s cluster 설정 데이터 관리" style="text;html=1;align=center;verticalAlign=middle;resizable=0;points=[];autosize=1;strokeColor=none;fillColor=none;fontSize=16;fontFamily=AppleSDGothicNeoEB00;fontColor=default;" parent="1" vertex="1">
          <mxGeometry x="284" y="120" width="210" height="50" as="geometry" />
        </mxCell>
        <mxCell id="Zu3WXsWGmTw4Fh6G8GJ5-5" value="REST API 제공&lt;br&gt;worker - k8s cluster 상호작용" style="text;html=1;align=left;verticalAlign=middle;resizable=0;points=[];autosize=1;strokeColor=none;fillColor=none;fontSize=16;fontFamily=AppleSDGothicNeoEB00;fontColor=default;" parent="1" vertex="1">
          <mxGeometry x="603" y="680" width="220" height="50" as="geometry" />
        </mxCell>
        <mxCell id="Zu3WXsWGmTw4Fh6G8GJ5-7" value="Master &lt;br&gt;(Control Plane)" style="text;html=1;align=left;verticalAlign=middle;resizable=0;points=[];autosize=1;strokeColor=none;fillColor=none;fontSize=24;fontFamily=AppleSDGothicNeoH00;fontColor=default;" parent="1" vertex="1">
          <mxGeometry x="9" y="20" width="190" height="70" as="geometry" />
        </mxCell>
        <mxCell id="Zu3WXsWGmTw4Fh6G8GJ5-8" value="kube-controller-manager" style="rounded=0;whiteSpace=wrap;html=1;fontFamily=AppleSDGothicNeoEB00;fontSize=16;fontColor=default;fillColor=none;gradientColor=none;" parent="1" vertex="1">
          <mxGeometry x="89" y="372.5" width="190" height="85" as="geometry" />
        </mxCell>
        <mxCell id="Zu3WXsWGmTw4Fh6G8GJ5-9" value="Deployment Controller 관리" style="text;html=1;align=center;verticalAlign=middle;resizable=0;points=[];autosize=1;strokeColor=none;fillColor=none;fontSize=16;fontFamily=AppleSDGothicNeoEB00;fontColor=default;" parent="1" vertex="1">
          <mxGeometry x="74" y="482.5" width="220" height="30" as="geometry" />
        </mxCell>
        <mxCell id="Zu3WXsWGmTw4Fh6G8GJ5-10" value="kube-scheduler" style="rounded=0;whiteSpace=wrap;html=1;fontFamily=AppleSDGothicNeoEB00;fontSize=16;fontColor=default;fillColor=none;gradientColor=none;" parent="1" vertex="1">
          <mxGeometry x="495" y="372.5" width="190" height="85" as="geometry" />
        </mxCell>
        <mxCell id="Zu3WXsWGmTw4Fh6G8GJ5-11" value="Pod 시작 노드 Scheduler&lt;br&gt;필요한 리소스등 조건을 고려해 노드 결정" style="text;html=1;align=center;verticalAlign=middle;resizable=0;points=[];autosize=1;strokeColor=none;fillColor=none;fontSize=16;fontFamily=AppleSDGothicNeoEB00;fontColor=default;" parent="1" vertex="1">
          <mxGeometry x="449" y="472.5" width="280" height="50" as="geometry" />
        </mxCell>
        <mxCell id="Zu3WXsWGmTw4Fh6G8GJ5-13" value="Worker &lt;br&gt;(Data Plane)" style="text;html=1;align=left;verticalAlign=middle;resizable=0;points=[];autosize=1;strokeColor=none;fillColor=none;fontSize=24;fontFamily=AppleSDGothicNeoH00;fontColor=default;" parent="1" vertex="1">
          <mxGeometry x="9" y="760" width="160" height="70" as="geometry" />
        </mxCell>
        <mxCell id="Zu3WXsWGmTw4Fh6G8GJ5-20" style="edgeStyle=orthogonalEdgeStyle;shape=connector;rounded=0;orthogonalLoop=1;jettySize=auto;html=1;exitX=0.5;exitY=1;exitDx=0;exitDy=0;entryX=0.5;entryY=0;entryDx=0;entryDy=0;labelBackgroundColor=default;strokeColor=default;strokeWidth=2;fontFamily=AppleSDGothicNeoEB00;fontSize=16;fontColor=default;endArrow=classic;endFill=1;" parent="1" source="Zu3WXsWGmTw4Fh6G8GJ5-14" target="Zu3WXsWGmTw4Fh6G8GJ5-16" edge="1">
          <mxGeometry relative="1" as="geometry" />
        </mxCell>
        <mxCell id="Zu3WXsWGmTw4Fh6G8GJ5-14" value="kube-proxy" style="rounded=0;whiteSpace=wrap;html=1;fontFamily=AppleSDGothicNeoEB00;fontSize=16;fontColor=default;fillColor=none;gradientColor=none;" parent="1" vertex="1">
          <mxGeometry x="74" y="900" width="190" height="85" as="geometry" />
        </mxCell>
        <mxCell id="Zu3WXsWGmTw4Fh6G8GJ5-24" style="edgeStyle=orthogonalEdgeStyle;shape=connector;rounded=0;orthogonalLoop=1;jettySize=auto;html=1;exitX=0.5;exitY=1;exitDx=0;exitDy=0;entryX=0.5;entryY=0;entryDx=0;entryDy=0;labelBackgroundColor=default;strokeColor=default;strokeWidth=2;fontFamily=AppleSDGothicNeoEB00;fontSize=16;fontColor=default;endArrow=classic;endFill=1;" parent="1" source="Zu3WXsWGmTw4Fh6G8GJ5-15" target="Zu3WXsWGmTw4Fh6G8GJ5-23" edge="1">
          <mxGeometry relative="1" as="geometry" />
        </mxCell>
        <mxCell id="Zu3WXsWGmTw4Fh6G8GJ5-15" value="kublet" style="rounded=0;whiteSpace=wrap;html=1;fontFamily=AppleSDGothicNeoEB00;fontSize=16;fontColor=default;fillColor=none;gradientColor=none;" parent="1" vertex="1">
          <mxGeometry x="500" y="900" width="190" height="85" as="geometry" />
        </mxCell>
        <mxCell id="Zu3WXsWGmTw4Fh6G8GJ5-16" value="iptables" style="swimlane;fontStyle=0;childLayout=stackLayout;horizontal=1;startSize=26;horizontalStack=0;resizeParent=1;resizeParentMax=0;resizeLast=0;collapsible=1;marginBottom=0;align=center;fontSize=14;fontFamily=AppleSDGothicNeoEB00;fontColor=default;fillColor=none;gradientColor=none;html=1;" parent="1" vertex="1">
          <mxGeometry x="79" y="1060" width="180" height="116" as="geometry" />
        </mxCell>
        <mxCell id="Zu3WXsWGmTw4Fh6G8GJ5-17" value="rule 1" style="text;strokeColor=none;fillColor=none;spacingLeft=4;spacingRight=4;overflow=hidden;rotatable=0;points=[[0,0.5],[1,0.5]];portConstraint=eastwest;fontSize=16;whiteSpace=wrap;html=1;fontFamily=AppleSDGothicNeoEB00;fontColor=default;" parent="Zu3WXsWGmTw4Fh6G8GJ5-16" vertex="1">
          <mxGeometry y="26" width="180" height="30" as="geometry" />
        </mxCell>
        <mxCell id="Zu3WXsWGmTw4Fh6G8GJ5-18" value="rule 2" style="text;strokeColor=none;fillColor=none;spacingLeft=4;spacingRight=4;overflow=hidden;rotatable=0;points=[[0,0.5],[1,0.5]];portConstraint=eastwest;fontSize=16;whiteSpace=wrap;html=1;fontFamily=AppleSDGothicNeoEB00;fontColor=default;" parent="Zu3WXsWGmTw4Fh6G8GJ5-16" vertex="1">
          <mxGeometry y="56" width="180" height="30" as="geometry" />
        </mxCell>
        <mxCell id="Zu3WXsWGmTw4Fh6G8GJ5-19" value="rule 3" style="text;strokeColor=none;fillColor=none;spacingLeft=4;spacingRight=4;overflow=hidden;rotatable=0;points=[[0,0.5],[1,0.5]];portConstraint=eastwest;fontSize=16;whiteSpace=wrap;html=1;fontFamily=AppleSDGothicNeoEB00;fontColor=default;" parent="Zu3WXsWGmTw4Fh6G8GJ5-16" vertex="1">
          <mxGeometry y="86" width="180" height="30" as="geometry" />
        </mxCell>
        <mxCell id="Zu3WXsWGmTw4Fh6G8GJ5-21" value="Update" style="text;html=1;align=center;verticalAlign=middle;resizable=0;points=[];autosize=1;strokeColor=none;fillColor=none;fontSize=16;fontFamily=AppleSDGothicNeoEB00;fontColor=default;" parent="1" vertex="1">
          <mxGeometry x="184" y="1010" width="80" height="30" as="geometry" />
        </mxCell>
        <mxCell id="Zu3WXsWGmTw4Fh6G8GJ5-23" value="Interface" style="swimlane;whiteSpace=wrap;html=1;fontFamily=AppleSDGothicNeoEB00;fontSize=16;fontColor=default;fillColor=none;gradientColor=none;" parent="1" vertex="1">
          <mxGeometry x="495" y="1060" width="200" height="200" as="geometry" />
        </mxCell>
        <mxCell id="Zu3WXsWGmTw4Fh6G8GJ5-25" value="Watch &amp;amp; Manage" style="text;html=1;align=center;verticalAlign=middle;resizable=0;points=[];autosize=1;strokeColor=none;fillColor=none;fontSize=16;fontFamily=AppleSDGothicNeoEB00;fontColor=default;" parent="1" vertex="1">
          <mxGeometry x="610" y="1010" width="140" height="30" as="geometry" />
        </mxCell>
        <mxCell id="RX6ZjSCCP55DBSriP5qo-1" value="" style="rounded=1;whiteSpace=wrap;html=1;fontFamily=AppleSDGothicNeoEB00;" parent="1" vertex="1">
          <mxGeometry x="510" y="1100" width="170" height="70" as="geometry" />
        </mxCell>
        <mxCell id="RX6ZjSCCP55DBSriP5qo-2" value="Pod" style="text;html=1;align=center;verticalAlign=middle;resizable=0;points=[];autosize=1;strokeColor=none;fillColor=none;fontSize=16;fontFamily=AppleSDGothicNeoEB00;" parent="1" vertex="1">
          <mxGeometry x="511" y="1110" width="50" height="30" as="geometry" />
        </mxCell>
        <mxCell id="RX6ZjSCCP55DBSriP5qo-3" value="&lt;font face=&quot;AppleSDGothicNeoR00&quot; style=&quot;font-size: 14px;&quot;&gt;Container&lt;/font&gt;" style="ellipse;whiteSpace=wrap;html=1;fontFamily=AppleSDGothicNeoEB00;fontSize=16;fontColor=default;fillColor=none;gradientColor=none;" parent="1" vertex="1">
          <mxGeometry x="580" y="1105" width="70" height="65" as="geometry" />
        </mxCell>
        <mxCell id="RX6ZjSCCP55DBSriP5qo-4" value="" style="rounded=1;whiteSpace=wrap;html=1;fontFamily=AppleSDGothicNeoEB00;" parent="1" vertex="1">
          <mxGeometry x="511" y="1180" width="170" height="70" as="geometry" />
        </mxCell>
        <mxCell id="RX6ZjSCCP55DBSriP5qo-5" value="Pod" style="text;html=1;align=center;verticalAlign=middle;resizable=0;points=[];autosize=1;strokeColor=none;fillColor=none;fontSize=16;fontFamily=AppleSDGothicNeoEB00;" parent="1" vertex="1">
          <mxGeometry x="512" y="1190" width="50" height="30" as="geometry" />
        </mxCell>
        <mxCell id="RX6ZjSCCP55DBSriP5qo-6" value="&lt;font face=&quot;AppleSDGothicNeoR00&quot; style=&quot;font-size: 14px;&quot;&gt;Container&lt;/font&gt;" style="ellipse;whiteSpace=wrap;html=1;fontFamily=AppleSDGothicNeoEB00;fontSize=16;fontColor=default;fillColor=none;gradientColor=none;" parent="1" vertex="1">
          <mxGeometry x="581" y="1185" width="69" height="65" as="geometry" />
        </mxCell>
      </root>
    </mxGraphModel>
  </diagram>
  <diagram id="aUZK61Cw2F-e8oPXrO3y" name="Service - ClusterIP">
    <mxGraphModel dx="1098" dy="838" grid="1" gridSize="10" guides="1" tooltips="1" connect="1" arrows="1" fold="1" page="1" pageScale="1" pageWidth="827" pageHeight="1169" math="0" shadow="0">
      <root>
        <mxCell id="0" />
        <mxCell id="1" parent="0" />
        <mxCell id="A1Xs7jSiRyG0FCbjG_JE-15" style="edgeStyle=orthogonalEdgeStyle;shape=connector;rounded=0;orthogonalLoop=1;jettySize=auto;html=1;exitX=0.219;exitY=0.017;exitDx=0;exitDy=0;entryX=0.5;entryY=1;entryDx=0;entryDy=0;labelBackgroundColor=default;strokeColor=default;strokeWidth=2;fontFamily=AppleSDGothicNeoR00;fontSize=16;fontColor=default;endArrow=none;dashed=1;endFill=0;exitPerimeter=0;" edge="1" parent="1" source="fp-OQ002oxHbvnyUNvm6-13">
          <mxGeometry relative="1" as="geometry">
            <mxPoint x="120" y="540" as="targetPoint" />
          </mxGeometry>
        </mxCell>
        <mxCell id="fp-OQ002oxHbvnyUNvm6-13" value="Node" style="rounded=0;whiteSpace=wrap;html=1;fontFamily=AppleSDGothicNeoEB00;fontSize=16;fillColor=#f5f5f5;fontColor=#333333;strokeColor=#666666;" parent="1" vertex="1">
          <mxGeometry x="40" y="570" width="360" height="60" as="geometry" />
        </mxCell>
        <mxCell id="fp-OQ002oxHbvnyUNvm6-23" value="Node" style="rounded=0;whiteSpace=wrap;html=1;fontFamily=AppleSDGothicNeoEB00;fontSize=16;fillColor=#f5f5f5;fontColor=#333333;strokeColor=#666666;" parent="1" vertex="1">
          <mxGeometry x="440" y="570" width="360" height="60" as="geometry" />
        </mxCell>
        <mxCell id="A1Xs7jSiRyG0FCbjG_JE-1" value="&lt;font face=&quot;AppleSDGothicNeoEB00&quot;&gt;Service A&lt;br&gt;(Cluster IP)&lt;br&gt;&lt;/font&gt;" style="rounded=0;whiteSpace=wrap;html=1;fontFamily=AppleSDGothicNeoR00;fontSize=16;fillColor=#fff2cc;strokeColor=#d6b656;" vertex="1" parent="1">
          <mxGeometry x="40" y="240" width="760" height="60" as="geometry" />
        </mxCell>
        <mxCell id="A1Xs7jSiRyG0FCbjG_JE-16" style="edgeStyle=orthogonalEdgeStyle;shape=connector;rounded=0;orthogonalLoop=1;jettySize=auto;html=1;exitX=0.783;exitY=-0.033;exitDx=0;exitDy=0;entryX=0.5;entryY=1;entryDx=0;entryDy=0;labelBackgroundColor=default;strokeColor=default;strokeWidth=2;fontFamily=AppleSDGothicNeoR00;fontSize=16;fontColor=default;endArrow=none;dashed=1;endFill=0;exitPerimeter=0;" edge="1" parent="1" source="fp-OQ002oxHbvnyUNvm6-13">
          <mxGeometry relative="1" as="geometry">
            <mxPoint x="129" y="581" as="sourcePoint" />
            <mxPoint x="320.5" y="540" as="targetPoint" />
          </mxGeometry>
        </mxCell>
        <mxCell id="A1Xs7jSiRyG0FCbjG_JE-17" style="edgeStyle=orthogonalEdgeStyle;shape=connector;rounded=0;orthogonalLoop=1;jettySize=auto;html=1;entryX=0.5;entryY=1;entryDx=0;entryDy=0;labelBackgroundColor=default;strokeColor=default;strokeWidth=2;fontFamily=AppleSDGothicNeoR00;fontSize=16;fontColor=default;endArrow=none;dashed=1;endFill=0;" edge="1" parent="1">
          <mxGeometry relative="1" as="geometry">
            <mxPoint x="520" y="570" as="sourcePoint" />
            <mxPoint x="520" y="540" as="targetPoint" />
          </mxGeometry>
        </mxCell>
        <mxCell id="A1Xs7jSiRyG0FCbjG_JE-18" style="edgeStyle=orthogonalEdgeStyle;shape=connector;rounded=0;orthogonalLoop=1;jettySize=auto;html=1;entryX=0.5;entryY=1;entryDx=0;entryDy=0;labelBackgroundColor=default;strokeColor=default;strokeWidth=2;fontFamily=AppleSDGothicNeoR00;fontSize=16;fontColor=default;endArrow=none;dashed=1;endFill=0;" edge="1" parent="1">
          <mxGeometry relative="1" as="geometry">
            <mxPoint x="721" y="570" as="sourcePoint" />
            <mxPoint x="720.5" y="540" as="targetPoint" />
          </mxGeometry>
        </mxCell>
        <mxCell id="A1Xs7jSiRyG0FCbjG_JE-19" value="&lt;font color=&quot;#ff3333&quot;&gt;&lt;b&gt;Virtual IP:targetPort&lt;/b&gt;&lt;/font&gt;" style="rounded=0;whiteSpace=wrap;html=1;fontFamily=AppleSDGothicNeoR00;fontSize=16;fillColor=#fff2cc;strokeColor=#d6b656;" vertex="1" parent="1">
          <mxGeometry x="347.5" y="220" width="145" height="30" as="geometry" />
        </mxCell>
        <mxCell id="A1Xs7jSiRyG0FCbjG_JE-28" value="" style="group" vertex="1" connectable="0" parent="1">
          <mxGeometry x="240" y="380" width="159" height="160" as="geometry" />
        </mxCell>
        <mxCell id="A1Xs7jSiRyG0FCbjG_JE-25" value="" style="rounded=1;whiteSpace=wrap;html=1;fontFamily=AppleSDGothicNeoEB00;fillColor=#dae8fc;strokeColor=#6c8ebf;" vertex="1" parent="A1Xs7jSiRyG0FCbjG_JE-28">
          <mxGeometry width="159" height="160" as="geometry" />
        </mxCell>
        <mxCell id="A1Xs7jSiRyG0FCbjG_JE-26" value="&lt;font face=&quot;AppleSDGothicNeoR00&quot; style=&quot;font-size: 14px;&quot;&gt;Container&lt;/font&gt;" style="ellipse;whiteSpace=wrap;html=1;fontFamily=AppleSDGothicNeoEB00;fontSize=16;fillColor=#dae8fc;strokeColor=#6c8ebf;" vertex="1" parent="A1Xs7jSiRyG0FCbjG_JE-28">
          <mxGeometry x="39.5" y="46.5" width="80" height="75" as="geometry" />
        </mxCell>
        <mxCell id="A1Xs7jSiRyG0FCbjG_JE-27" value="Port" style="rounded=1;whiteSpace=wrap;html=1;fontFamily=AppleSDGothicNeoR00;fontSize=16;fontColor=default;fillColor=none;gradientColor=none;dashed=1;shadow=0;glass=0;" vertex="1" parent="A1Xs7jSiRyG0FCbjG_JE-28">
          <mxGeometry x="59" y="30" width="34" height="30" as="geometry" />
        </mxCell>
        <mxCell id="A1Xs7jSiRyG0FCbjG_JE-21" value="Pod" style="text;html=1;align=center;verticalAlign=middle;resizable=0;points=[];autosize=1;strokeColor=none;fillColor=none;fontSize=16;fontFamily=AppleSDGothicNeoEB00;dashed=1;rounded=1;shadow=0;glass=0;" vertex="1" parent="A1Xs7jSiRyG0FCbjG_JE-28">
          <mxGeometry x="9" y="10" width="50" height="30" as="geometry" />
        </mxCell>
        <mxCell id="A1Xs7jSiRyG0FCbjG_JE-9" style="edgeStyle=orthogonalEdgeStyle;rounded=0;orthogonalLoop=1;jettySize=auto;html=1;exitX=0.5;exitY=1;exitDx=0;exitDy=0;entryX=0.5;entryY=0;entryDx=0;entryDy=0;fontFamily=AppleSDGothicNeoR00;fontSize=16;fontColor=default;strokeWidth=2;" edge="1" parent="1" source="A1Xs7jSiRyG0FCbjG_JE-1">
          <mxGeometry relative="1" as="geometry">
            <mxPoint x="317" y="410" as="targetPoint" />
          </mxGeometry>
        </mxCell>
        <mxCell id="A1Xs7jSiRyG0FCbjG_JE-29" value="" style="group" vertex="1" connectable="0" parent="1">
          <mxGeometry x="42" y="380" width="159" height="160" as="geometry" />
        </mxCell>
        <mxCell id="A1Xs7jSiRyG0FCbjG_JE-30" value="" style="rounded=1;whiteSpace=wrap;html=1;fontFamily=AppleSDGothicNeoEB00;fillColor=#dae8fc;strokeColor=#6c8ebf;" vertex="1" parent="A1Xs7jSiRyG0FCbjG_JE-29">
          <mxGeometry width="159" height="160" as="geometry" />
        </mxCell>
        <mxCell id="A1Xs7jSiRyG0FCbjG_JE-31" value="&lt;font face=&quot;AppleSDGothicNeoR00&quot; style=&quot;font-size: 14px;&quot;&gt;Container&lt;/font&gt;" style="ellipse;whiteSpace=wrap;html=1;fontFamily=AppleSDGothicNeoEB00;fontSize=16;fillColor=#dae8fc;strokeColor=#6c8ebf;" vertex="1" parent="A1Xs7jSiRyG0FCbjG_JE-29">
          <mxGeometry x="39.5" y="46.5" width="80" height="75" as="geometry" />
        </mxCell>
        <mxCell id="A1Xs7jSiRyG0FCbjG_JE-32" value="Port" style="rounded=1;whiteSpace=wrap;html=1;fontFamily=AppleSDGothicNeoR00;fontSize=16;fontColor=default;fillColor=none;gradientColor=none;dashed=1;shadow=0;glass=0;" vertex="1" parent="A1Xs7jSiRyG0FCbjG_JE-29">
          <mxGeometry x="59" y="30" width="34" height="30" as="geometry" />
        </mxCell>
        <mxCell id="A1Xs7jSiRyG0FCbjG_JE-33" value="Pod" style="text;html=1;align=center;verticalAlign=middle;resizable=0;points=[];autosize=1;strokeColor=none;fillColor=none;fontSize=16;fontFamily=AppleSDGothicNeoEB00;rounded=1;shadow=0;glass=0;" vertex="1" parent="A1Xs7jSiRyG0FCbjG_JE-29">
          <mxGeometry x="9" y="10" width="50" height="30" as="geometry" />
        </mxCell>
        <mxCell id="A1Xs7jSiRyG0FCbjG_JE-34" value="" style="group" vertex="1" connectable="0" parent="1">
          <mxGeometry x="440" y="380" width="159" height="160" as="geometry" />
        </mxCell>
        <mxCell id="A1Xs7jSiRyG0FCbjG_JE-35" value="" style="rounded=1;whiteSpace=wrap;html=1;fontFamily=AppleSDGothicNeoEB00;fillColor=#dae8fc;strokeColor=#6c8ebf;" vertex="1" parent="A1Xs7jSiRyG0FCbjG_JE-34">
          <mxGeometry width="159" height="160" as="geometry" />
        </mxCell>
        <mxCell id="A1Xs7jSiRyG0FCbjG_JE-36" value="&lt;font face=&quot;AppleSDGothicNeoR00&quot; style=&quot;font-size: 14px;&quot;&gt;Container&lt;/font&gt;" style="ellipse;whiteSpace=wrap;html=1;fontFamily=AppleSDGothicNeoEB00;fontSize=16;fillColor=#dae8fc;strokeColor=#6c8ebf;" vertex="1" parent="A1Xs7jSiRyG0FCbjG_JE-34">
          <mxGeometry x="39.5" y="46.5" width="80" height="75" as="geometry" />
        </mxCell>
        <mxCell id="A1Xs7jSiRyG0FCbjG_JE-37" value="Port" style="rounded=1;whiteSpace=wrap;html=1;fontFamily=AppleSDGothicNeoR00;fontSize=16;fontColor=default;fillColor=none;gradientColor=none;dashed=1;shadow=0;glass=0;" vertex="1" parent="A1Xs7jSiRyG0FCbjG_JE-34">
          <mxGeometry x="59" y="30" width="34" height="30" as="geometry" />
        </mxCell>
        <mxCell id="A1Xs7jSiRyG0FCbjG_JE-38" value="Pod" style="text;html=1;align=center;verticalAlign=middle;resizable=0;points=[];autosize=1;strokeColor=none;fillColor=none;fontSize=16;fontFamily=AppleSDGothicNeoEB00;dashed=1;rounded=1;shadow=0;glass=0;" vertex="1" parent="A1Xs7jSiRyG0FCbjG_JE-34">
          <mxGeometry x="9" y="10" width="50" height="30" as="geometry" />
        </mxCell>
        <mxCell id="A1Xs7jSiRyG0FCbjG_JE-39" value="" style="group" vertex="1" connectable="0" parent="1">
          <mxGeometry x="640" y="380" width="159" height="160" as="geometry" />
        </mxCell>
        <mxCell id="A1Xs7jSiRyG0FCbjG_JE-40" value="" style="rounded=1;whiteSpace=wrap;html=1;fontFamily=AppleSDGothicNeoEB00;fillColor=#dae8fc;strokeColor=#6c8ebf;" vertex="1" parent="A1Xs7jSiRyG0FCbjG_JE-39">
          <mxGeometry width="159" height="160" as="geometry" />
        </mxCell>
        <mxCell id="A1Xs7jSiRyG0FCbjG_JE-41" value="&lt;font face=&quot;AppleSDGothicNeoR00&quot; style=&quot;font-size: 14px;&quot;&gt;Container&lt;/font&gt;" style="ellipse;whiteSpace=wrap;html=1;fontFamily=AppleSDGothicNeoEB00;fontSize=16;fillColor=#dae8fc;strokeColor=#6c8ebf;" vertex="1" parent="A1Xs7jSiRyG0FCbjG_JE-39">
          <mxGeometry x="39.5" y="46.5" width="80" height="75" as="geometry" />
        </mxCell>
        <mxCell id="A1Xs7jSiRyG0FCbjG_JE-42" value="Port" style="rounded=1;whiteSpace=wrap;html=1;fontFamily=AppleSDGothicNeoR00;fontSize=16;fontColor=default;fillColor=none;gradientColor=none;dashed=1;shadow=0;glass=0;" vertex="1" parent="A1Xs7jSiRyG0FCbjG_JE-39">
          <mxGeometry x="59" y="30" width="34" height="30" as="geometry" />
        </mxCell>
        <mxCell id="A1Xs7jSiRyG0FCbjG_JE-43" value="Pod" style="text;html=1;align=center;verticalAlign=middle;resizable=0;points=[];autosize=1;strokeColor=none;fillColor=none;fontSize=16;fontFamily=AppleSDGothicNeoEB00;dashed=1;rounded=1;shadow=0;glass=0;" vertex="1" parent="A1Xs7jSiRyG0FCbjG_JE-39">
          <mxGeometry x="9" y="10" width="50" height="30" as="geometry" />
        </mxCell>
        <mxCell id="A1Xs7jSiRyG0FCbjG_JE-11" style="edgeStyle=orthogonalEdgeStyle;rounded=0;orthogonalLoop=1;jettySize=auto;html=1;exitX=0.5;exitY=1;exitDx=0;exitDy=0;entryX=0.5;entryY=0;entryDx=0;entryDy=0;fontFamily=AppleSDGothicNeoR00;fontSize=16;fontColor=default;strokeWidth=2;" edge="1" parent="1" source="A1Xs7jSiRyG0FCbjG_JE-1">
          <mxGeometry relative="1" as="geometry">
            <mxPoint x="520" y="410" as="targetPoint" />
          </mxGeometry>
        </mxCell>
        <mxCell id="A1Xs7jSiRyG0FCbjG_JE-13" style="edgeStyle=orthogonalEdgeStyle;rounded=0;orthogonalLoop=1;jettySize=auto;html=1;exitX=0.5;exitY=1;exitDx=0;exitDy=0;entryX=0.5;entryY=0;entryDx=0;entryDy=0;fontFamily=AppleSDGothicNeoR00;fontSize=16;fontColor=default;strokeWidth=2;" edge="1" parent="1" source="A1Xs7jSiRyG0FCbjG_JE-1">
          <mxGeometry relative="1" as="geometry">
            <mxPoint x="120" y="410" as="targetPoint" />
          </mxGeometry>
        </mxCell>
        <mxCell id="A1Xs7jSiRyG0FCbjG_JE-14" style="edgeStyle=orthogonalEdgeStyle;rounded=0;orthogonalLoop=1;jettySize=auto;html=1;exitX=0.5;exitY=1;exitDx=0;exitDy=0;fontFamily=AppleSDGothicNeoR00;fontSize=16;fontColor=default;strokeWidth=2;" edge="1" parent="1" source="A1Xs7jSiRyG0FCbjG_JE-1">
          <mxGeometry relative="1" as="geometry">
            <mxPoint x="720.5" y="410" as="targetPoint" />
          </mxGeometry>
        </mxCell>
        <mxCell id="A1Xs7jSiRyG0FCbjG_JE-45" style="edgeStyle=orthogonalEdgeStyle;shape=connector;rounded=0;orthogonalLoop=1;jettySize=auto;html=1;labelBackgroundColor=default;strokeColor=default;strokeWidth=2;fontFamily=AppleSDGothicNeoR00;fontSize=16;fontColor=default;endArrow=classic;entryX=0.5;entryY=0;entryDx=0;entryDy=0;" edge="1" parent="1" source="A1Xs7jSiRyG0FCbjG_JE-44" target="A1Xs7jSiRyG0FCbjG_JE-50">
          <mxGeometry relative="1" as="geometry">
            <mxPoint x="421" y="100" as="targetPoint" />
          </mxGeometry>
        </mxCell>
        <mxCell id="A1Xs7jSiRyG0FCbjG_JE-44" value="&lt;font style=&quot;font-size: 24px;&quot; face=&quot;AppleSDGothicNeoEB00&quot;&gt;Internal traffic&lt;/font&gt;" style="text;html=1;strokeColor=none;fillColor=none;align=center;verticalAlign=middle;whiteSpace=wrap;rounded=0;fontSize=16;fontFamily=AppleSDGothicNeoR00;fontColor=#FF3333;fontStyle=2" vertex="1" parent="1">
          <mxGeometry x="735" y="20" width="170" height="30" as="geometry" />
        </mxCell>
        <mxCell id="WBa1Bha-aE1_eKZ_COVL-1" style="edgeStyle=orthogonalEdgeStyle;shape=connector;rounded=0;orthogonalLoop=1;jettySize=auto;html=1;exitX=0.5;exitY=1;exitDx=0;exitDy=0;entryX=0.5;entryY=0;entryDx=0;entryDy=0;labelBackgroundColor=default;strokeColor=default;strokeWidth=2;fontFamily=AppleSDGothicNeoR00;fontSize=16;fontColor=default;endArrow=classic;" edge="1" parent="1" source="A1Xs7jSiRyG0FCbjG_JE-50" target="A1Xs7jSiRyG0FCbjG_JE-19">
          <mxGeometry relative="1" as="geometry" />
        </mxCell>
        <mxCell id="-TLLx_dutat9LhW98ryV-36" style="edgeStyle=orthogonalEdgeStyle;shape=connector;rounded=0;orthogonalLoop=1;jettySize=auto;html=1;exitX=0.5;exitY=1;exitDx=0;exitDy=0;labelBackgroundColor=default;strokeColor=default;strokeWidth=2;fontFamily=AppleSDGothicNeoR00;fontSize=16;fontColor=default;endArrow=classic;" edge="1" parent="1" source="A1Xs7jSiRyG0FCbjG_JE-50" target="-TLLx_dutat9LhW98ryV-11">
          <mxGeometry relative="1" as="geometry" />
        </mxCell>
        <mxCell id="A1Xs7jSiRyG0FCbjG_JE-50" value="&lt;font face=&quot;AppleSDGothicNeoEB00&quot;&gt;Proxy&lt;br&gt;(exist in each node)&lt;br&gt;&lt;/font&gt;" style="rounded=0;whiteSpace=wrap;html=1;fontFamily=AppleSDGothicNeoR00;fontSize=16;fillColor=#f5f5f5;strokeColor=#666666;fontColor=#333333;" vertex="1" parent="1">
          <mxGeometry x="40" y="110" width="1560" height="60" as="geometry" />
        </mxCell>
        <mxCell id="L0HjB6_wIa5QL56G9Tv4-1" value="iptables" style="swimlane;fontStyle=0;childLayout=stackLayout;horizontal=1;startSize=26;horizontalStack=0;resizeParent=1;resizeParentMax=0;resizeLast=0;collapsible=1;marginBottom=0;align=center;fontSize=14;fontFamily=AppleSDGothicNeoEB00;fontColor=default;fillColor=none;gradientColor=none;html=1;" vertex="1" parent="1">
          <mxGeometry x="90" y="770" width="180" height="116" as="geometry" />
        </mxCell>
        <mxCell id="L0HjB6_wIa5QL56G9Tv4-2" value="virtual IP - Pod IP" style="text;strokeColor=none;fillColor=none;spacingLeft=4;spacingRight=4;overflow=hidden;rotatable=0;points=[[0,0.5],[1,0.5]];portConstraint=eastwest;fontSize=16;whiteSpace=wrap;html=1;fontFamily=AppleSDGothicR00;fontColor=default;" vertex="1" parent="L0HjB6_wIa5QL56G9Tv4-1">
          <mxGeometry y="26" width="180" height="30" as="geometry" />
        </mxCell>
        <mxCell id="L0HjB6_wIa5QL56G9Tv4-3" value="virtual IP - Pod IP" style="text;strokeColor=none;fillColor=none;spacingLeft=4;spacingRight=4;overflow=hidden;rotatable=0;points=[[0,0.5],[1,0.5]];portConstraint=eastwest;fontSize=16;whiteSpace=wrap;html=1;fontFamily=AppleSDGothicR00;fontColor=default;" vertex="1" parent="L0HjB6_wIa5QL56G9Tv4-1">
          <mxGeometry y="56" width="180" height="30" as="geometry" />
        </mxCell>
        <mxCell id="L0HjB6_wIa5QL56G9Tv4-4" value="virtual IP - Pod IP" style="text;strokeColor=none;fillColor=none;spacingLeft=4;spacingRight=4;overflow=hidden;rotatable=0;points=[[0,0.5],[1,0.5]];portConstraint=eastwest;fontSize=16;whiteSpace=wrap;html=1;fontFamily=AppleSDGothicR00;fontColor=default;" vertex="1" parent="L0HjB6_wIa5QL56G9Tv4-1">
          <mxGeometry y="86" width="180" height="30" as="geometry" />
        </mxCell>
        <mxCell id="-TLLx_dutat9LhW98ryV-1" value="Each Node has kube-proxy having iptables&lt;br&gt;mapping the service virtual IP to real pod IP&lt;br&gt;with selector label information" style="text;html=1;align=left;verticalAlign=middle;resizable=0;points=[];autosize=1;strokeColor=none;fillColor=none;fontSize=16;fontFamily=AppleSDGothicNeoR00;fontColor=default;" vertex="1" parent="1">
          <mxGeometry x="94" y="688" width="320" height="70" as="geometry" />
        </mxCell>
        <mxCell id="-TLLx_dutat9LhW98ryV-3" value="목적지가 서비스의 Virtual IP로 적힌 패킷이 들어오면,&lt;br&gt;kube-proxy 가 실제 Pod 의 IP로 패킷 포워딩." style="text;html=1;align=left;verticalAlign=middle;resizable=0;points=[];autosize=1;strokeColor=none;fillColor=none;fontSize=16;fontFamily=AppleSDGothicNeoR00;fontColor=default;" vertex="1" parent="1">
          <mxGeometry x="90" y="940" width="360" height="50" as="geometry" />
        </mxCell>
        <mxCell id="-TLLx_dutat9LhW98ryV-4" style="edgeStyle=orthogonalEdgeStyle;shape=connector;rounded=0;orthogonalLoop=1;jettySize=auto;html=1;exitX=0.219;exitY=0.017;exitDx=0;exitDy=0;entryX=0.5;entryY=1;entryDx=0;entryDy=0;labelBackgroundColor=default;strokeColor=default;strokeWidth=2;fontFamily=AppleSDGothicNeoR00;fontSize=16;fontColor=default;endArrow=none;dashed=1;endFill=0;exitPerimeter=0;" edge="1" parent="1" source="-TLLx_dutat9LhW98ryV-5">
          <mxGeometry relative="1" as="geometry">
            <mxPoint x="920" y="540" as="targetPoint" />
          </mxGeometry>
        </mxCell>
        <mxCell id="-TLLx_dutat9LhW98ryV-5" value="Node" style="rounded=0;whiteSpace=wrap;html=1;fontFamily=AppleSDGothicNeoEB00;fontSize=16;fillColor=#f5f5f5;fontColor=#333333;strokeColor=#666666;" vertex="1" parent="1">
          <mxGeometry x="840" y="570" width="360" height="60" as="geometry" />
        </mxCell>
        <mxCell id="-TLLx_dutat9LhW98ryV-6" value="Node" style="rounded=0;whiteSpace=wrap;html=1;fontFamily=AppleSDGothicNeoEB00;fontSize=16;fillColor=#f5f5f5;fontColor=#333333;strokeColor=#666666;" vertex="1" parent="1">
          <mxGeometry x="1240" y="570" width="360" height="60" as="geometry" />
        </mxCell>
        <mxCell id="-TLLx_dutat9LhW98ryV-7" value="&lt;font face=&quot;AppleSDGothicNeoEB00&quot;&gt;Service B&lt;br&gt;(Cluster IP)&lt;br&gt;&lt;/font&gt;" style="rounded=0;whiteSpace=wrap;html=1;fontFamily=AppleSDGothicNeoR00;fontSize=16;fillColor=#fff2cc;strokeColor=#d6b656;" vertex="1" parent="1">
          <mxGeometry x="840" y="240" width="760" height="60" as="geometry" />
        </mxCell>
        <mxCell id="-TLLx_dutat9LhW98ryV-8" style="edgeStyle=orthogonalEdgeStyle;shape=connector;rounded=0;orthogonalLoop=1;jettySize=auto;html=1;exitX=0.783;exitY=-0.033;exitDx=0;exitDy=0;entryX=0.5;entryY=1;entryDx=0;entryDy=0;labelBackgroundColor=default;strokeColor=default;strokeWidth=2;fontFamily=AppleSDGothicNeoR00;fontSize=16;fontColor=default;endArrow=none;dashed=1;endFill=0;exitPerimeter=0;" edge="1" parent="1" source="-TLLx_dutat9LhW98ryV-5">
          <mxGeometry relative="1" as="geometry">
            <mxPoint x="929" y="581" as="sourcePoint" />
            <mxPoint x="1120.5" y="540" as="targetPoint" />
          </mxGeometry>
        </mxCell>
        <mxCell id="-TLLx_dutat9LhW98ryV-9" style="edgeStyle=orthogonalEdgeStyle;shape=connector;rounded=0;orthogonalLoop=1;jettySize=auto;html=1;entryX=0.5;entryY=1;entryDx=0;entryDy=0;labelBackgroundColor=default;strokeColor=default;strokeWidth=2;fontFamily=AppleSDGothicNeoR00;fontSize=16;fontColor=default;endArrow=none;dashed=1;endFill=0;" edge="1" parent="1">
          <mxGeometry relative="1" as="geometry">
            <mxPoint x="1320" y="570" as="sourcePoint" />
            <mxPoint x="1320" y="540" as="targetPoint" />
          </mxGeometry>
        </mxCell>
        <mxCell id="-TLLx_dutat9LhW98ryV-10" style="edgeStyle=orthogonalEdgeStyle;shape=connector;rounded=0;orthogonalLoop=1;jettySize=auto;html=1;entryX=0.5;entryY=1;entryDx=0;entryDy=0;labelBackgroundColor=default;strokeColor=default;strokeWidth=2;fontFamily=AppleSDGothicNeoR00;fontSize=16;fontColor=default;endArrow=none;dashed=1;endFill=0;" edge="1" parent="1">
          <mxGeometry relative="1" as="geometry">
            <mxPoint x="1521" y="570" as="sourcePoint" />
            <mxPoint x="1520.5" y="540" as="targetPoint" />
          </mxGeometry>
        </mxCell>
        <mxCell id="-TLLx_dutat9LhW98ryV-11" value="&lt;font color=&quot;#ff3333&quot;&gt;&lt;b&gt;Virtual IP:targetPort&lt;/b&gt;&lt;/font&gt;" style="rounded=0;whiteSpace=wrap;html=1;fontFamily=AppleSDGothicNeoR00;fontSize=16;fillColor=#fff2cc;strokeColor=#d6b656;" vertex="1" parent="1">
          <mxGeometry x="1147.5" y="220" width="145" height="30" as="geometry" />
        </mxCell>
        <mxCell id="-TLLx_dutat9LhW98ryV-12" value="" style="group" vertex="1" connectable="0" parent="1">
          <mxGeometry x="1040" y="380" width="159" height="160" as="geometry" />
        </mxCell>
        <mxCell id="-TLLx_dutat9LhW98ryV-13" value="" style="rounded=1;whiteSpace=wrap;html=1;fontFamily=AppleSDGothicNeoEB00;fillColor=#dae8fc;strokeColor=#6c8ebf;" vertex="1" parent="-TLLx_dutat9LhW98ryV-12">
          <mxGeometry width="159" height="160" as="geometry" />
        </mxCell>
        <mxCell id="-TLLx_dutat9LhW98ryV-14" value="&lt;font face=&quot;AppleSDGothicNeoR00&quot; style=&quot;font-size: 14px;&quot;&gt;Container&lt;/font&gt;" style="ellipse;whiteSpace=wrap;html=1;fontFamily=AppleSDGothicNeoEB00;fontSize=16;fillColor=#dae8fc;strokeColor=#6c8ebf;" vertex="1" parent="-TLLx_dutat9LhW98ryV-12">
          <mxGeometry x="39.5" y="46.5" width="80" height="75" as="geometry" />
        </mxCell>
        <mxCell id="-TLLx_dutat9LhW98ryV-15" value="Port" style="rounded=1;whiteSpace=wrap;html=1;fontFamily=AppleSDGothicNeoR00;fontSize=16;fontColor=default;fillColor=none;gradientColor=none;dashed=1;shadow=0;glass=0;" vertex="1" parent="-TLLx_dutat9LhW98ryV-12">
          <mxGeometry x="59" y="30" width="34" height="30" as="geometry" />
        </mxCell>
        <mxCell id="-TLLx_dutat9LhW98ryV-16" value="Pod" style="text;html=1;align=center;verticalAlign=middle;resizable=0;points=[];autosize=1;strokeColor=none;fillColor=none;fontSize=16;fontFamily=AppleSDGothicNeoEB00;dashed=1;rounded=1;shadow=0;glass=0;" vertex="1" parent="-TLLx_dutat9LhW98ryV-12">
          <mxGeometry x="9" y="10" width="50" height="30" as="geometry" />
        </mxCell>
        <mxCell id="-TLLx_dutat9LhW98ryV-17" style="edgeStyle=orthogonalEdgeStyle;rounded=0;orthogonalLoop=1;jettySize=auto;html=1;exitX=0.5;exitY=1;exitDx=0;exitDy=0;entryX=0.5;entryY=0;entryDx=0;entryDy=0;fontFamily=AppleSDGothicNeoR00;fontSize=16;fontColor=default;strokeWidth=2;" edge="1" parent="1" source="-TLLx_dutat9LhW98ryV-7">
          <mxGeometry relative="1" as="geometry">
            <mxPoint x="1117" y="410" as="targetPoint" />
          </mxGeometry>
        </mxCell>
        <mxCell id="-TLLx_dutat9LhW98ryV-18" value="" style="group" vertex="1" connectable="0" parent="1">
          <mxGeometry x="842" y="380" width="159" height="160" as="geometry" />
        </mxCell>
        <mxCell id="-TLLx_dutat9LhW98ryV-19" value="" style="rounded=1;whiteSpace=wrap;html=1;fontFamily=AppleSDGothicNeoEB00;fillColor=#dae8fc;strokeColor=#6c8ebf;" vertex="1" parent="-TLLx_dutat9LhW98ryV-18">
          <mxGeometry width="159" height="160" as="geometry" />
        </mxCell>
        <mxCell id="-TLLx_dutat9LhW98ryV-20" value="&lt;font face=&quot;AppleSDGothicNeoR00&quot; style=&quot;font-size: 14px;&quot;&gt;Container&lt;/font&gt;" style="ellipse;whiteSpace=wrap;html=1;fontFamily=AppleSDGothicNeoEB00;fontSize=16;fillColor=#dae8fc;strokeColor=#6c8ebf;" vertex="1" parent="-TLLx_dutat9LhW98ryV-18">
          <mxGeometry x="39.5" y="46.5" width="80" height="75" as="geometry" />
        </mxCell>
        <mxCell id="-TLLx_dutat9LhW98ryV-21" value="Port" style="rounded=1;whiteSpace=wrap;html=1;fontFamily=AppleSDGothicNeoR00;fontSize=16;fontColor=default;fillColor=none;gradientColor=none;dashed=1;shadow=0;glass=0;" vertex="1" parent="-TLLx_dutat9LhW98ryV-18">
          <mxGeometry x="59" y="30" width="34" height="30" as="geometry" />
        </mxCell>
        <mxCell id="-TLLx_dutat9LhW98ryV-22" value="Pod" style="text;html=1;align=center;verticalAlign=middle;resizable=0;points=[];autosize=1;strokeColor=none;fillColor=none;fontSize=16;fontFamily=AppleSDGothicNeoEB00;rounded=1;shadow=0;glass=0;" vertex="1" parent="-TLLx_dutat9LhW98ryV-18">
          <mxGeometry x="9" y="10" width="50" height="30" as="geometry" />
        </mxCell>
        <mxCell id="-TLLx_dutat9LhW98ryV-23" value="" style="group" vertex="1" connectable="0" parent="1">
          <mxGeometry x="1240" y="380" width="159" height="160" as="geometry" />
        </mxCell>
        <mxCell id="-TLLx_dutat9LhW98ryV-24" value="" style="rounded=1;whiteSpace=wrap;html=1;fontFamily=AppleSDGothicNeoEB00;fillColor=#dae8fc;strokeColor=#6c8ebf;" vertex="1" parent="-TLLx_dutat9LhW98ryV-23">
          <mxGeometry width="159" height="160" as="geometry" />
        </mxCell>
        <mxCell id="-TLLx_dutat9LhW98ryV-25" value="&lt;font face=&quot;AppleSDGothicNeoR00&quot; style=&quot;font-size: 14px;&quot;&gt;Container&lt;/font&gt;" style="ellipse;whiteSpace=wrap;html=1;fontFamily=AppleSDGothicNeoEB00;fontSize=16;fillColor=#dae8fc;strokeColor=#6c8ebf;" vertex="1" parent="-TLLx_dutat9LhW98ryV-23">
          <mxGeometry x="39.5" y="46.5" width="80" height="75" as="geometry" />
        </mxCell>
        <mxCell id="-TLLx_dutat9LhW98ryV-26" value="Port" style="rounded=1;whiteSpace=wrap;html=1;fontFamily=AppleSDGothicNeoR00;fontSize=16;fontColor=default;fillColor=none;gradientColor=none;dashed=1;shadow=0;glass=0;" vertex="1" parent="-TLLx_dutat9LhW98ryV-23">
          <mxGeometry x="59" y="30" width="34" height="30" as="geometry" />
        </mxCell>
        <mxCell id="-TLLx_dutat9LhW98ryV-27" value="Pod" style="text;html=1;align=center;verticalAlign=middle;resizable=0;points=[];autosize=1;strokeColor=none;fillColor=none;fontSize=16;fontFamily=AppleSDGothicNeoEB00;dashed=1;rounded=1;shadow=0;glass=0;" vertex="1" parent="-TLLx_dutat9LhW98ryV-23">
          <mxGeometry x="9" y="10" width="50" height="30" as="geometry" />
        </mxCell>
        <mxCell id="-TLLx_dutat9LhW98ryV-28" value="" style="group" vertex="1" connectable="0" parent="1">
          <mxGeometry x="1440" y="380" width="159" height="160" as="geometry" />
        </mxCell>
        <mxCell id="-TLLx_dutat9LhW98ryV-29" value="" style="rounded=1;whiteSpace=wrap;html=1;fontFamily=AppleSDGothicNeoEB00;fillColor=#dae8fc;strokeColor=#6c8ebf;" vertex="1" parent="-TLLx_dutat9LhW98ryV-28">
          <mxGeometry width="159" height="160" as="geometry" />
        </mxCell>
        <mxCell id="-TLLx_dutat9LhW98ryV-30" value="&lt;font face=&quot;AppleSDGothicNeoR00&quot; style=&quot;font-size: 14px;&quot;&gt;Container&lt;/font&gt;" style="ellipse;whiteSpace=wrap;html=1;fontFamily=AppleSDGothicNeoEB00;fontSize=16;fillColor=#dae8fc;strokeColor=#6c8ebf;" vertex="1" parent="-TLLx_dutat9LhW98ryV-28">
          <mxGeometry x="39.5" y="46.5" width="80" height="75" as="geometry" />
        </mxCell>
        <mxCell id="-TLLx_dutat9LhW98ryV-31" value="Port" style="rounded=1;whiteSpace=wrap;html=1;fontFamily=AppleSDGothicNeoR00;fontSize=16;fontColor=default;fillColor=none;gradientColor=none;dashed=1;shadow=0;glass=0;" vertex="1" parent="-TLLx_dutat9LhW98ryV-28">
          <mxGeometry x="59" y="30" width="34" height="30" as="geometry" />
        </mxCell>
        <mxCell id="-TLLx_dutat9LhW98ryV-32" value="Pod" style="text;html=1;align=center;verticalAlign=middle;resizable=0;points=[];autosize=1;strokeColor=none;fillColor=none;fontSize=16;fontFamily=AppleSDGothicNeoEB00;dashed=1;rounded=1;shadow=0;glass=0;" vertex="1" parent="-TLLx_dutat9LhW98ryV-28">
          <mxGeometry x="9" y="10" width="50" height="30" as="geometry" />
        </mxCell>
        <mxCell id="-TLLx_dutat9LhW98ryV-33" style="edgeStyle=orthogonalEdgeStyle;rounded=0;orthogonalLoop=1;jettySize=auto;html=1;exitX=0.5;exitY=1;exitDx=0;exitDy=0;entryX=0.5;entryY=0;entryDx=0;entryDy=0;fontFamily=AppleSDGothicNeoR00;fontSize=16;fontColor=default;strokeWidth=2;" edge="1" parent="1" source="-TLLx_dutat9LhW98ryV-7">
          <mxGeometry relative="1" as="geometry">
            <mxPoint x="1320" y="410" as="targetPoint" />
          </mxGeometry>
        </mxCell>
        <mxCell id="-TLLx_dutat9LhW98ryV-34" style="edgeStyle=orthogonalEdgeStyle;rounded=0;orthogonalLoop=1;jettySize=auto;html=1;exitX=0.5;exitY=1;exitDx=0;exitDy=0;entryX=0.5;entryY=0;entryDx=0;entryDy=0;fontFamily=AppleSDGothicNeoR00;fontSize=16;fontColor=default;strokeWidth=2;" edge="1" parent="1" source="-TLLx_dutat9LhW98ryV-7">
          <mxGeometry relative="1" as="geometry">
            <mxPoint x="920" y="410" as="targetPoint" />
          </mxGeometry>
        </mxCell>
        <mxCell id="-TLLx_dutat9LhW98ryV-35" style="edgeStyle=orthogonalEdgeStyle;rounded=0;orthogonalLoop=1;jettySize=auto;html=1;exitX=0.5;exitY=1;exitDx=0;exitDy=0;fontFamily=AppleSDGothicNeoR00;fontSize=16;fontColor=default;strokeWidth=2;" edge="1" parent="1" source="-TLLx_dutat9LhW98ryV-7">
          <mxGeometry relative="1" as="geometry">
            <mxPoint x="1520.5" y="410" as="targetPoint" />
          </mxGeometry>
        </mxCell>
        <mxCell id="-TLLx_dutat9LhW98ryV-37" value="Proxy mapping virtual IP - Service" style="text;html=1;align=left;verticalAlign=middle;resizable=0;points=[];autosize=1;strokeColor=none;fillColor=none;fontSize=16;fontFamily=AppleSDGothicNeoR00;fontColor=default;" vertex="1" parent="1">
          <mxGeometry x="40" y="180" width="250" height="30" as="geometry" />
        </mxCell>
        <mxCell id="-TLLx_dutat9LhW98ryV-38" value="&lt;div style=&quot;&quot;&gt;&lt;span style=&quot;font-family: AppleSDGothicNeoEB00; background-color: initial;&quot;&gt;[Netork rules]&lt;/span&gt;&lt;/div&gt;Kube Proxy 생성시 서비스의 가상 IP와 파드의 IP Linking&amp;nbsp;" style="text;html=1;align=left;verticalAlign=middle;resizable=0;points=[];autosize=1;strokeColor=none;fillColor=none;fontSize=16;fontFamily=AppleSDGothicNeoR00;fontColor=default;" vertex="1" parent="1">
          <mxGeometry x="90" y="890" width="390" height="50" as="geometry" />
        </mxCell>
      </root>
    </mxGraphModel>
  </diagram>
  <diagram id="8yGBvkBwKw09fxoJZVes" name="Service - NodePort">
    <mxGraphModel dx="1098" dy="838" grid="1" gridSize="10" guides="1" tooltips="1" connect="1" arrows="1" fold="1" page="1" pageScale="1" pageWidth="827" pageHeight="1169" math="0" shadow="0">
      <root>
        <mxCell id="0" />
        <mxCell id="1" parent="0" />
      </root>
    </mxGraphModel>
  </diagram>
</mxfile>
